<?xml version="1.0" standalone="no"?>
<!DOCTYPE svg PUBLIC "-//W3C//DTD SVG 1.1//EN" "http://www.w3.org/Graphics/SVG/1.1/DTD/svg11.dtd" >
<svg xmlns="http://www.w3.org/2000/svg">
<metadata>Generated by IcoMoon</metadata>
<defs>
<font id="eziou" horiz-adv-x="512">
<font-face units-per-em="512" ascent="480" descent="-32" />
<missing-glyph horiz-adv-x="512" />
<glyph unicode="&#x20;" d="" horiz-adv-x="256" />
<glyph unicode="&#xe600;" d="M252.536 423.987l-230.392-401.067h460.8l-230.409 401.067zM252.536 389.717l200.926-349.73h-401.834l200.909 349.73zM244.002 261.854h17.067v-119.466h-17.066v119.466zM252.518 116.787c-7.066 0-12.774-5.735-12.774-12.8 0-7.048 5.709-12.783 12.774-12.783 7.091 0 12.826 5.735 12.826 12.783 0 7.065-5.735 12.8-12.826 12.8z" />
<glyph unicode="&#xe601;" d="M256.921 377.447c-93.585 0-166.536-58.573-256-153.541 77.082-81.203 141.764-153.651 256-153.651s198.195 91.716 256 151.936c-59.17 70.536-143.138 155.255-256 155.255zM256.921 87.313c-101.41 0-162.629 62.899-232.465 136.567 83.097 86.647 149.171 136.49 232.465 136.49 98.611 0 175.675-71.108 233.019-137.506-56.389-58.794-132.744-135.552-233.019-135.552zM256.921 326.238c-56.465 0-102.4-45.935-102.4-102.392 0-56.465 45.935-102.4 102.4-102.4s102.4 45.935 102.4 102.4c0 56.457-45.926 102.392-102.4 102.392zM256.921 138.513c-47.053 0-85.334 38.281-85.334 85.334s38.281 85.325 85.334 85.325 85.334-38.272 85.334-85.325c0-47.044-38.281-85.334-85.334-85.334zM256.921 283.579c-32.93 0-59.733-26.803-59.733-59.733s26.803-59.733 59.733-59.733 59.733 26.803 59.733 59.733c0 32.93-26.794 59.733-59.733 59.733zM256.921 181.18c-23.526 0-42.666 19.132-42.666 42.666 0 23.526 19.141 42.666 42.666 42.666s42.666-19.141 42.666-42.666c0-23.526-19.14-42.666-42.666-42.666z" />
<glyph unicode="&#xe602;" d="M256.921 431.769c-113.118 0-204.8-91.682-204.8-204.8s91.682-204.8 204.8-204.8 204.8 91.682 204.8 204.8c0 113.118-91.682 204.8-204.8 204.8zM256.921 414.703c103.518 0 187.733-84.215 187.733-187.733 0-45.534-16.315-87.338-43.401-119.885-18.714 7.817-62.899 23.151-90.248 31.232-2.329 0.734-2.697 0.853-2.697 10.547 0 8.013 3.303 16.103 6.519 22.938 3.481 7.416 7.62 19.899 9.096 31.104 4.147 4.813 9.796 14.319 13.432 32.427 3.183 15.958 1.698 21.768-0.418 27.213-0.214 0.571-0.452 1.143-0.615 1.707-0.802 3.738 0.298 23.185 3.029 38.263 1.886 10.351-0.486 32.359-14.737 50.569-9.002 11.512-26.214 25.634-57.668 27.597l-17.246-0.017c-30.917-1.954-48.154-16.077-57.148-27.579-14.25-18.21-16.614-40.218-14.737-50.56 2.748-15.095 3.832-34.534 3.047-38.203-0.171-0.64-0.401-1.212-0.631-1.784-2.099-5.453-3.601-11.256-0.401-27.213 3.618-18.107 9.267-27.614 13.431-32.427 1.468-11.195 5.598-23.68 9.096-31.104 2.552-5.435 3.746-12.834 3.746-23.288 0-9.702-0.367-9.813-2.552-10.513-28.279-8.354-73.302-24.618-90.087-31.966-27.614 32.7-44.297 74.897-44.297 120.935 0.017 103.526 84.241 187.742 187.751 187.742zM125.858 92.731c19.217 7.851 57.531 21.512 82.697 28.954 14.635 4.616 14.635 16.93 14.635 26.837 0 8.217-0.563 20.318-5.368 30.55-3.303 6.998-7.065 19.021-7.902 28.433-0.179 2.202-1.22 4.233-2.885 5.683-2.415 2.116-7.33 9.865-10.47 25.498-2.483 12.374-1.434 15.087-0.418 17.698 0.435 1.118 0.853 2.218 1.186 3.456 2.048 7.493-0.231 32.103-2.714 45.747-1.083 5.93 0.281 22.793 11.383 36.992 9.95 12.723 25.019 19.815 44.237 21.043l16.179 0.017c19.729-1.246 34.799-8.337 44.766-21.061 11.102-14.199 12.45-31.061 11.366-37-2.466-13.645-4.77-38.246-2.714-45.73 0.35-1.246 0.751-2.346 1.186-3.464 1.015-2.62 2.065-5.325-0.401-17.698-3.132-15.633-8.064-23.382-10.488-25.498-1.647-1.45-2.68-3.481-2.885-5.683-0.819-9.421-4.582-21.435-7.885-28.433-3.781-8.047-8.132-18.748-8.132-30.2 0-9.899 0-22.221 14.779-26.88 24.081-7.117 62.584-20.335 82.918-28.33-33.954-33.613-80.597-54.417-132.019-54.417-50.935-0.009-97.186 20.421-131.055 53.487z" />
<glyph unicode="&#xe603;" d="M182.255 225.255l-12.066-12.075 86.733-86.733 86.733 86.733-12.066 12.075-66.134-66.142v270.149h-17.066v-270.149zM299.589 343.928v-17.067h110.933v-290.125h-307.2v290.125h110.933v17.067h-128v-324.258h341.334v324.258z" />
<glyph unicode="&#xe604;" d="M376.389 231.407h-213.333v102.4c0 51.755 42.12 93.866 93.883 93.866 51.746 0 93.849-42.112 93.849-93.866v-34.134h17.067v34.134c0 61.261-49.664 110.933-110.916 110.933-61.278 0-110.951-49.673-110.951-110.933v-102.4h-59.733v-230.4h341.334v230.4h-51.2zM410.522 18.074h-307.2v196.267h307.2v-196.267z" />
<glyph unicode="&#xe605;" d="M419.046 389.103h-85.334v17.066c0 18.85-15.283 34.134-34.134 34.134h-85.334c-18.85 0-34.133-15.283-34.133-34.134v-17.066h-85.334v-17.067h17.587l17.084-324.267c0-18.85 15.283-34.134 34.133-34.134h187.733c18.85 0 34.134 15.283 34.134 34.134l16.785 324.267h16.819v17.067zM197.179 406.169c0 9.421 7.663 17.067 17.066 17.067h85.334c9.421 0 17.067-7.646 17.067-17.067v-17.066h-119.466v17.066zM368.418 48.649l-0.034-0.435v-0.452c0-9.404-7.646-17.067-17.067-17.067h-187.733c-9.404 0-17.066 7.663-17.066 17.067v0.452l-0.017 0.452-17.049 323.37h255.702l-16.734-323.387zM248.38 337.903h17.067v-273.067h-17.066v273.067zM197.152 337.909l17.478-272.546-17.032-1.092-17.478 272.546 17.032 1.093zM316.726 338.44l17.033-1.066-17.101-273.066-17.033 1.067 17.101 273.065z" />
<glyph unicode="&#xe606;" d="M316.647 369.186v42.666h-119.466v-42.666h-145.066v-324.267h409.6v324.267h-145.067zM214.246 394.786h85.333v-25.6h-85.334v25.6zM197.179 352.12h247.466v-136.534h-128v34.133h-119.466v-34.133h-128v136.534h128zM299.579 232.653v-51.2h-85.334v51.2h85.334zM69.18 61.986v136.534h128v-34.134h119.466v34.134h128v-136.534h-375.466z" />
<glyph unicode="&#xe607;" d="M235.895 212.164c0.333-0.418 0.802-0.768 1.169-1.169 4.702-5.837 11.802-9.634 19.865-9.634 14.131 0 25.6 11.452 25.6 25.6 0 7.518-3.303 14.2-8.431 18.885-0.666 0.751-1.28 1.519-2.27 2.27l-103.45 78.72c-3.021 2.313-7.347 2.432-10.496 0-3.763-2.902-4.463-8.303-1.57-12.066l79.582-102.605zM256.921 440.286c-2.799 0-5.53-0.315-8.303-0.418v-8.849h-0.231v-93.099h17.067v84.864c104.269-4.514 187.733-90.487 187.733-195.814 0-108.22-88.030-196.249-196.267-196.249s-196.267 88.030-196.267 196.25c0 54.118 22.016 103.185 57.566 138.718l-12.135 12.135c-38.614-38.596-62.498-91.929-62.498-150.852 0-117.82 95.496-213.317 213.333-213.317s213.334 95.496 213.334 213.316-95.496 213.316-213.333 213.316z" />
<glyph unicode="&#xe608;" d="M390.016 222.447c41.882 43.050 60.621 84.941 44.92 110.788-6.255 10.308-20.685 22.587-53.837 22.587-18.176 0-39.424-3.686-62.353-10.47-15.224 55.031-40.584 90.428-69.871 90.428-28.928 0-54.033-34.551-69.317-88.431-20.258 5.512-39.065 8.482-55.39 8.482-33.152 0-47.574-12.279-53.846-22.587-12.595-20.719-4.147-51.644 23.766-87.074 6.221-7.902 13.329-15.846 21.086-23.782-41.847-43.017-60.561-84.898-44.851-110.745 6.263-10.3 20.694-22.579 53.837-22.579 16.325 0 35.141 2.978 55.407 8.482 15.274-53.871 40.38-88.423 69.308-88.423 29.286 0 54.647 35.397 69.871 90.411 22.921-6.784 44.177-10.471 62.361-10.471 33.144 0 47.565 12.279 53.829 22.579 15.71 25.856-3.038 67.763-44.919 110.805zM381.099 338.765c13.918 0 32.026-2.5 39.253-14.395 10.411-17.127-5.257-51.772-42.496-89.993-13.585 12.706-29.073 25.403-46.216 37.683-1.851 20.207-4.805 39.228-8.721 56.653 21.649 6.486 41.575 10.053 58.18 10.053zM287.906 164.394c-11.682-7.099-23.501-13.645-35.277-19.61-11.768 5.965-23.586 12.51-35.269 19.61-12.297 7.475-24.055 15.317-35.234 23.373-0.726 11.187-1.195 22.699-1.195 34.68 0 11.998 0.47 23.526 1.203 34.722 10.931 7.902 22.665 15.719 35.2 23.33 11.69 7.1 23.51 13.645 35.294 19.618 11.784-5.974 23.603-12.518 35.294-19.618 9.642-5.863 18.671-11.861 27.375-17.903 0.973-12.842 1.519-26.223 1.519-40.158 0-13.926-0.538-27.315-1.519-40.149-8.695-6.033-17.741-12.041-27.392-17.894zM313.122 160.162c-1.673-13.773-3.925-26.649-6.562-38.664-11.289 3.985-22.929 8.695-34.714 14.046 8.312 4.48 16.632 9.233 24.926 14.276 5.589 3.379 11.025 6.844 16.35 10.342zM233.421 135.543c-14.233-6.469-28.237-11.955-41.677-16.409-3.234 14.233-5.863 29.773-7.706 46.533 7.945-5.418 16.051-10.743 24.465-15.855 8.286-5.043 16.606-9.796 24.917-14.267zM164.275 201.336c-8.738 6.929-17.024 13.986-24.687 21.094 7.518 7.006 15.821 14.080 24.687 21.154-0.256-6.938-0.401-13.986-0.401-21.128s0.145-14.191 0.401-21.12zM184.047 279.339c1.843 16.709 4.463 32.214 7.689 46.421 13.44-4.446 27.435-9.941 41.668-16.401-8.311-4.48-16.64-9.233-24.935-14.277-8.44-5.128-16.572-10.393-24.423-15.744zM271.855 309.368c11.793 5.351 23.416 10.053 34.705 14.037 2.637-12.006 4.881-24.875 6.562-38.647-5.325 3.498-10.76 6.946-16.333 10.343-8.286 5.034-16.623 9.787-24.935 14.267zM333.201 249.6c11.87-9.054 22.784-18.15 32.435-27.153-9.651-8.994-20.565-18.091-32.435-27.144 0.435 8.875 0.683 17.928 0.683 27.144s-0.248 18.27-0.683 27.153zM248.875 418.714c19.439 0 40.183-29.654 53.563-78.584-16.103-5.598-32.845-12.63-49.809-20.906-19.397 9.455-38.486 17.272-56.67 23.21 13.406 47.548 33.784 76.28 52.915 76.28zM84.906 324.377c7.228 11.896 25.335 14.396 39.262 14.396 14.78 0 32.214-2.833 51.132-8.022-4.523-19.652-7.851-41.352-9.711-64.554-13.994-10.453-26.803-21.137-38.23-31.846-7.305 7.483-14.011 14.968-19.857 22.4-22.861 28.988-31.096 53.641-22.596 67.627zM124.16 106.129c-13.918 0-32.025 2.5-39.254 14.387-10.41 17.135 5.248 51.772 42.479 89.993 11.562-10.777 24.406-21.385 38.204-31.685 1.851-23.253 5.179-44.979 9.72-64.666-18.927-5.188-36.361-8.030-51.149-8.030zM248.875 26.18c-19.131 0-39.51 28.731-52.906 76.271 18.185 5.939 37.274 13.747 56.67 23.219 16.964-8.277 33.707-15.309 49.809-20.915-13.389-48.93-34.134-78.575-53.572-78.575zM420.352 120.507c-7.228-11.887-25.327-14.387-39.245-14.387-16.615 0-36.539 3.567-58.197 10.053 3.917 17.433 6.878 36.446 8.729 56.67 17.135 12.288 32.623 24.977 46.208 37.683 37.248-38.229 52.906-72.883 42.505-90.018z" />
<glyph unicode="&#xe609;" d="M396.979 450.654h-112.444l-258.509-257.834 202.53-202.965 258.27 257.579v113.587l-89.847 89.634zM469.76 254.515l-241.169-240.529-178.423 178.808 241.425 240.793h98.329l79.829-79.65v-99.422zM350.344 348.305c0-18.782 15.309-34.056 34.133-34.056s34.134 15.274 34.134 34.056c0 18.791-15.309 34.074-34.134 34.074s-34.134-15.275-34.134-34.074zM401.545 348.305c0-9.369-7.654-16.99-17.067-16.99s-17.067 7.629-17.067 16.99c0 9.378 7.654 17.007 17.067 17.007s17.067-7.629 17.067-17.007z" />
<glyph unicode="&#xe60a;" d="M311.245 278.135l-54.101 166.434-54.118-166.434h-176.281l142.848-102.391-54.852-166.383 142.405 103.219 142.387-103.219-54.835 166.383 142.848 102.392h-176.298zM328.474 170.402l38.315-116.216-109.654 79.471-109.662-79.471 42.249 128.128-10.197 7.296-99.686 71.458h135.586l3.832 11.793 37.879 116.514 41.702-128.307h135.586l-109.866-78.754 3.917-11.913z" />
<glyph unicode="&#xe60b;" d="M239.36 440.952h17.067v-204.8h-17.066v204.8zM333.226 406.417v-18.876c62.123-30.643 104.986-94.635 104.986-168.457 0-103.518-84.216-187.733-187.733-187.733s-187.733 84.216-187.733 187.733c0 71.766 40.49 134.221 99.815 165.811v19.192c-69.112-32.896-116.881-103.356-116.881-185.002 0-113.109 91.691-204.8 204.8-204.8s204.8 91.69 204.8 204.8c0 83.652-50.176 155.537-122.053 187.333z" />
<glyph unicode="&#xe60c;" d="M412.613 442.12c-37.7 0-68.267-30.575-68.267-68.266 0-6.545 0.973-12.86 2.688-18.85l-199.577-83.653c-11.802 20.446-33.834 34.236-59.119 34.236-37.691 0-68.266-30.575-68.266-68.266 0-37.7 30.575-68.267 68.266-68.267 19.746 0 37.504 8.44 49.963 21.863l128.598-92.424c-5.026-9.506-7.902-20.327-7.902-31.821 0-37.709 30.575-68.275 68.267-68.275s68.267 30.567 68.267 68.275c0 37.692-30.575 68.258-68.267 68.258-20.053 0-38.033-8.712-50.526-22.477l-128.41 92.262c5.282 9.694 8.286 20.796 8.286 32.597 0 6.34-0.93 12.458-2.552 18.296l199.722 83.72c11.861-20.165 33.733-33.75 58.829-33.75 37.7 0 68.267 30.566 68.267 68.275 0 37.691-30.567 68.266-68.267 68.266zM327.279 117.854c28.237 0 51.2-22.963 51.2-51.192 0-28.237-22.963-51.209-51.2-51.209s-51.2 22.971-51.2 51.209c0 28.219 22.963 51.192 51.2 51.192zM88.346 186.12c-28.237 0-51.2 22.963-51.2 51.2s22.963 51.2 51.2 51.2 51.2-22.963 51.2-51.2-22.971-51.2-51.2-51.2zM412.613 322.645c-28.237 0-51.2 22.971-51.2 51.209s22.963 51.2 51.2 51.2 51.2-22.963 51.2-51.2-22.971-51.209-51.2-51.209z" />
<glyph unicode="&#xe60d;" d="M255.309 440.038c-117.82 0-213.333-95.505-213.333-213.333s95.513-213.333 213.333-213.333 213.333 95.505 213.333 213.333-95.513 213.333-213.333 213.333zM255.309 30.438c-108.228 0-196.267 88.047-196.267 196.267s88.038 196.267 196.267 196.267 196.267-88.047 196.267-196.267-88.038-196.267-196.267-196.267zM362.026 302.874l-136.994-132.839-47.992 47.983c-5 5-13.099 5-18.099 0s-5-13.099 0-18.099l56.9-56.901c2.5-2.5 5.777-3.746 9.054-3.746 3.208 0 6.425 1.203 8.909 3.61l146.040 141.619c5.077 4.923 5.197 13.022 0.281 18.099-4.941 5.077-13.031 5.188-18.099 0.273z" />
<glyph unicode="&#xe60e;" d="M51.2 276.839c-28.279 0-51.2-22.929-51.2-51.2s22.921-51.2 51.2-51.2c28.263 0 51.2 22.929 51.2 51.2s-22.938 51.2-51.2 51.2zM51.2 191.505c-18.833 0-34.133 15.309-34.133 34.133s15.3 34.133 34.133 34.133c18.816 0 34.133-15.309 34.133-34.133s-15.317-34.133-34.133-34.133zM460.8 276.839c-28.279 0-51.2-22.929-51.2-51.2s22.921-51.2 51.2-51.2c28.262 0 51.2 22.929 51.2 51.2s-22.938 51.2-51.2 51.2zM460.8 191.505c-18.816 0-34.133 15.309-34.133 34.133s15.317 34.133 34.134 34.133 34.134-15.309 34.134-34.133-15.317-34.133-34.134-34.133zM256 276.839c-28.279 0-51.2-22.929-51.2-51.2s22.921-51.2 51.2-51.2c28.262 0 51.2 22.929 51.2 51.2s-22.938 51.2-51.2 51.2zM256 191.505c-18.816 0-34.133 15.309-34.133 34.133s15.317 34.133 34.133 34.133 34.134-15.309 34.134-34.133-15.317-34.133-34.134-34.133z" />
<glyph unicode="&#xe60f;" d="M472.175 114.705v307.2h-443.733v-307.2h213.333v-68.267h-59.733v-17.067h136.534v17.067h-59.733v68.267h213.334zM45.508 404.839h409.6v-273.067h-409.6v273.067z" />
<glyph unicode="&#xe610;" d="M368.734 456.038h-226.85c-12.757 0-23.108-10.36-23.108-23.117v-414.575c0-12.774 10.351-23.108 23.108-23.108h226.85c12.757 0 23.108 10.334 23.108 23.108v414.575c0 12.766-10.351 23.117-23.108 23.117zM374.776 18.346c0-3.337-2.705-6.041-6.041-6.041h-226.85c-3.337 0-6.042 2.705-6.042 6.041v79.232h238.934v-79.232zM374.776 114.654h-238.934v272.768h238.934v-272.768zM374.776 404.488h-238.934v28.433c0 3.337 2.705 6.050 6.042 6.050h226.85c3.337 0 6.041-2.714 6.041-6.050v-28.433zM229.709 63.505h51.2v-17.067h-51.2v17.067z" />
<glyph unicode="&#xe611;" d="M453.18 385.015c0 23.569-19.106 42.658-42.666 42.658-23.569 0-42.666-19.089-42.666-42.658 0-20.633 14.661-37.854 34.133-41.805v-291.004h17.067v291.003c19.481 3.959 34.134 21.171 34.134 41.805zM410.513 359.416c-14.114 0-25.6 11.486-25.6 25.6 0 14.106 11.486 25.591 25.6 25.591s25.6-11.486 25.6-25.591c0-14.114-11.478-25.6-25.6-25.6zM111.847 102.553v290.986h-17.067v-290.995c-19.473-3.959-34.133-21.163-34.133-41.805 0-23.56 19.106-42.666 42.666-42.666s42.666 19.106 42.666 42.666c0 20.642-14.651 37.854-34.133 41.813zM103.313 35.14c-14.114 0-25.6 11.486-25.6 25.6s11.486 25.6 25.6 25.6 25.6-11.486 25.6-25.6-11.477-25.6-25.6-25.6zM265.447 264.687v128.853h-17.066v-128.862c-19.473-3.959-34.133-21.171-34.133-41.805s14.661-37.854 34.133-41.805v-128.862h17.066v128.862c19.473 3.959 34.134 21.171 34.134 41.805s-14.651 37.854-34.134 41.814zM256.913 197.274c-14.114 0-25.6 11.486-25.6 25.6s11.486 25.6 25.6 25.6 25.6-11.486 25.6-25.6-11.478-25.6-25.6-25.6z" />
<glyph unicode="&#xe612;" d="M452.898 363.503h-409.31v-273.067h426.666v273.067h-17.357zM435.832 346.437l-164.83-164.839c-7.518-7.518-20.633-7.518-28.151 0l-164.856 164.839h357.837zM60.655 339.635l110.814-110.797-110.814-110.823v221.619zM74.274 107.503l109.278 109.261 47.232-47.232c6.971-6.981 16.264-10.837 26.138-10.837s19.166 3.849 26.137 10.837l47.232 47.24 109.269-109.269h-365.286zM453.188 118.016l-110.814 110.822 110.814 110.822v-221.645z" />
<glyph unicode="&#xe613;" d="M367.65 231.407v102.4c0 61.261-49.664 110.933-110.925 110.933-61.278 0-110.951-49.673-110.951-110.933v-102.4h-59.733v-230.4h341.334v230.4h-59.725zM162.841 333.807c0 51.755 42.12 93.866 93.884 93.866 51.755 0 93.858-42.112 93.858-93.866v-102.4h-187.733v102.4zM410.317 18.074h-307.2v196.267h307.2v-196.267z" />
<glyph unicode="&#xe614;" d="M256.93 462.942c84.694 0 153.591-68.906 153.591-153.608 0-26.931-7.134-53.487-20.642-76.808l-132.958-230.392-132.975 230.409c-13.491 23.304-20.625 49.861-20.625 76.791 0 84.702 68.915 153.608 153.609 153.608zM256.93 249.608c32.93 0 59.725 26.795 59.725 59.725 0 32.922-26.795 59.716-59.725 59.716-32.939 0-59.742-26.794-59.742-59.716 0-32.93 26.803-59.725 59.742-59.725zM256.93 480.009c-94.259 0-170.675-76.433-170.675-170.675 0-31.121 8.371-60.219 22.929-85.342l147.738-256 147.738 256c14.55 25.122 22.929 54.221 22.929 85.342 0 94.242-76.416 170.675-170.658 170.675v0zM256.93 266.675c-23.569 0-42.675 19.089-42.675 42.658 0 23.543 19.106 42.649 42.675 42.649 23.56 0 42.658-19.106 42.658-42.649 0-23.569-19.098-42.658-42.658-42.658v0z" />
<glyph unicode="&#xe615;" d="M278.4 146.722c-20.822 0-41.651 7.919-57.498 23.774l12.066 12.066c25.062-25.063 65.817-25.054 90.88 0l107.486 107.495c25.054 25.054 25.054 65.809 0 90.863l-20.019 20.010c-25.054 25.054-65.817 25.054-90.863 0l-75.862-75.853-12.066 12.066 75.862 75.853c31.702 31.702 83.286 31.719 115.004 0l20.019-20.010c31.702-31.71 31.702-83.303 0-115.004l-107.495-107.486c-15.846-15.846-36.685-23.774-57.514-23.774zM141.815 10.095c-21.718 0-42.138 8.457-57.498 23.817l-20.019 20.010c-31.701 31.719-31.701 83.303 0 115.004l107.495 107.503c31.702 31.702 83.311 31.702 115.012 0l20.019-20.019-12.066-12.066-20.019 20.019c-25.054 25.054-65.826 25.045-90.871 0l-107.503-107.512c-25.046-25.046-25.046-65.809 0-90.863l20.019-20.010c12.135-12.135 28.271-18.816 45.431-18.816 17.169 0 33.297 6.681 45.431 18.816l71.535 71.535 12.066-12.066-71.535-71.535c-15.343-15.36-35.772-23.817-57.498-23.817z" />
<glyph unicode="&#xe616;" d="M283.579 330.112c0-14.134-11.457-25.591-25.591-25.591s-25.591 11.458-25.591 25.591c0 14.134 11.458 25.591 25.591 25.591s25.591-11.457 25.591-25.591zM275.379 270.387v17.066h-51.2v-17.066h17.066v-145.066h-17.066v-17.067h68.267v17.067h-17.067zM256.921 440.32c-117.82 0-213.333-95.513-213.333-213.333 0-117.837 95.513-213.333 213.333-213.333s213.334 95.496 213.334 213.333c0 117.811-95.514 213.333-213.333 213.333zM256.921 30.72c-108.228 0-196.267 88.047-196.267 196.267s88.038 196.267 196.267 196.267 196.267-88.047 196.267-196.267-88.038-196.267-196.267-196.267z" />
<glyph unicode="&#xe617;" d="M251.631 437.811l-85.333-85.334v34.134h-68.266v-102.4l-60.1-60.101 12.066-12.066 201.634 201.634 201.634-201.634 12.066 12.066-213.701 213.701zM115.097 369.544h34.133v-34.133l-34.133-34.133v68.266zM98.031 215.945v-204.8h119.466v119.466h68.267v-119.466h119.466v204.8l-153.6 153.6-153.6-153.6zM388.164 28.211h-85.334v119.466h-102.4v-119.466h-85.334v180.668l136.534 136.534 136.534-136.534v-180.668z" />
<glyph unicode="&#xe618;" d="M249.558 440.303c-117.829 0-213.333-95.505-213.333-213.333 0-117.82 95.505-213.333 213.333-213.333s213.333 95.513 213.333 213.333c0 117.819-95.505 213.333-213.333 213.333zM249.558 30.703c-108.228 0-196.267 88.038-196.267 196.267s88.038 196.267 196.267 196.267 196.267-88.038 196.267-196.267-88.038-196.267-196.267-196.267zM248.832 338.808c-43.315 0-67.499-26.769-67.806-69.171h18.816c-0.589 30.762 15.53 53.342 48.094 53.342 23.287 0 42.71-16.426 42.71-40.32 0-15.53-8.363-28.075-19.413-38.536-22.69-21.069-29.056-30.968-30.2-59.827h19.055c1.127 26.163 0.538 25.642 23.382 48.478 15.232 14.336 25.984 28.68 25.984 50.782 0 34.646-27.478 55.253-60.621 55.253zM266.624 133.094c0-9.425-7.641-17.067-17.066-17.067s-17.066 7.641-17.066 17.067c0 9.425 7.641 17.067 17.066 17.067s17.066-7.641 17.066-17.067z" />
<glyph unicode="&#xe619;" d="M351.13 395.589c56.354 0 102.058-45.688 102.058-102.059 0-28.953-12.075-55.040-31.445-73.625l-164.821-165.658-167.808 168.644c-17.605 18.338-28.459 43.204-28.459 70.639 0 56.363 45.696 102.058 102.058 102.058 42.445 0 78.823-25.924 94.208-62.797 15.385 36.873 51.772 62.797 94.208 62.797zM351.13 412.655c-37.538 0-72.013-17.433-94.208-46.165-22.195 28.731-56.67 46.165-94.208 46.165-65.681 0-119.126-53.444-119.126-119.125 0-30.865 11.793-60.151 33.221-82.466l180.113-181 176.922 177.8c23.373 22.425 36.411 52.95 36.411 85.666 0 65.681-53.435 119.125-119.125 119.125v0z" />
<glyph unicode="&#xe61a;" d="M182.255 225.255l-12.066-12.075 86.733-86.733 86.733 86.733-12.066 12.075-66.134-66.142v270.149h-17.066v-270.149zM299.589 343.928v-17.067h110.933v-290.125h-307.2v290.125h110.933v17.067h-128v-324.258h341.334v324.258z" />
<glyph unicode="&#xe61b;" d="M444.655 359.697l-85.334 85.334h-187.733v-68.267h-102.4v-375.466h273.067v68.267h102.4v290.134zM359.322 420.898l61.201-61.201h-61.201v61.201zM86.255 18.363v341.334h153.6v-85.334h85.333v-256h-238.934zM256.921 352.632l61.201-61.201h-61.201v61.201zM342.255 86.63v204.8l-85.334 85.334h-68.267v51.2h153.6v-85.334h85.334v-256h-85.334z" />
<glyph unicode="&#xe61c;" d="M406.195 282.966l-145.007 144.998h-153.6v-409.6h298.667v264.576l-0.060 0.026zM261.188 403.832l112.401-112.401h-112.401v112.401zM124.655 35.43v375.466h119.466v-136.534h145.066v-238.934h-264.534z" />
<glyph unicode="&#xe61d;" d="M257.186 444.143c-108.399 0-196.267-42.027-196.267-93.875v-256c0-51.832 87.868-93.858 196.267-93.858 108.382 0 196.267 42.026 196.267 93.858v256c0 51.849-87.885 93.875-196.267 93.875zM257.186 427.077c105.6 0 179.2-40.474 179.2-76.808 0-36.318-73.6-76.792-179.2-76.792-105.617 0-179.2 40.474-179.2 76.791 0 36.335 73.583 76.808 179.2 76.808zM436.386 111.334v-17.067c0-36.318-73.6-76.791-179.2-76.791-105.617 0-179.2 40.474-179.2 76.791v47.070c30.635-32.751 99.32-55.594 179.2-55.594 79.863 0 148.565 22.844 179.2 55.594v-30.003zM436.386 179.601c0-36.318-73.6-76.791-179.2-76.791-105.617 0-179.2 40.474-179.2 76.791v47.061c30.635-32.751 99.32-55.595 179.2-55.595 79.863 0 148.565 22.844 179.2 55.594v-47.062zM436.386 264.935c0-36.318-73.6-76.791-179.2-76.791-105.617 0-179.2 40.474-179.2 76.791v47.070c30.635-32.751 99.32-55.594 179.2-55.594 79.863 0 148.565 22.844 179.2 55.594v-47.070z" />
<glyph unicode="&#xe61e;" d="M342.247 306.526v128h-298.666v-230.4h128v-128h177.083l68.267-68.267h10.649v68.267h42.666v230.4h-128zM60.647 221.192v196.267h264.534v-110.933h-153.6v-85.334h-110.933zM453.18 93.201h-42.666v-54.784l-54.784 54.784h-167.083v196.267h264.534v-196.267z" />
<glyph unicode="&#xe61f;" d="M419.678 400.52h-341.385c-18.85 0-34.133-15.283-34.133-34.133v-221.986c0-18.85 15.283-34.133 34.133-34.133h239.582l67.644-67.644v67.644h34.159c18.85 0 34.134 15.283 34.134 34.134v221.986c0 18.85-15.283 34.134-34.134 34.134zM436.745 144.401c0-9.413-7.654-17.067-17.067-17.067h-51.226v-43.512l-43.512 43.512h-246.648c-9.412 0-17.067 7.654-17.067 17.067v221.986c0 9.412 7.654 17.067 17.067 17.067h341.385c9.413 0 17.067-7.655 17.067-17.067v-221.986zM266.053 255.334c0-9.425-7.641-17.066-17.066-17.066s-17.066 7.641-17.066 17.066c0 9.425 7.641 17.066 17.066 17.066s17.066-7.641 17.066-17.066zM334.319 255.334c0-9.425-7.641-17.066-17.067-17.066s-17.067 7.641-17.067 17.066c0 9.425 7.641 17.066 17.067 17.066s17.067-7.641 17.067-17.066zM199.39 255.334c0-9.425-7.641-17.066-17.066-17.066s-17.066 7.641-17.066 17.066c0 9.425 7.641 17.066 17.066 17.066s17.066-7.641 17.066-17.066z" />
<glyph unicode="&#xe620;" d="M256.921 431.769c-113.101 0-204.8-91.699-204.8-204.8s91.699-204.8 204.8-204.8 204.8 91.699 204.8 204.8-91.699 204.8-204.8 204.8zM256.921 39.236c-103.518 0-187.733 84.216-187.733 187.733s84.216 187.733 187.733 187.733 187.733-84.216 187.733-187.733-84.216-187.733-187.733-187.733zM256.921 209.903h-102.4v-17.067h119.466v169.967h-17.067z" />
<glyph unicode="&#xe621;" d="M49.212 427.247v-409.6h409.6v409.6h-409.6zM441.745 410.18v-73.523l-112.409-162.168-77.065 60.903-85.734-120.030-50.62 33.741-49.639-57.865v318.942h375.466zM66.278 34.714v30.31l52.761 61.491 51.78-34.526 84.933 118.904 77.269-61.048 108.723 156.859v-271.983h-375.466z" />
<glyph unicode="&#xe622;" d="M460.109 375.868h-409.6c-14.131 0-25.6-11.469-25.6-25.6v-256c0-14.149 11.469-25.6 25.6-25.6h409.6c14.131 0 25.6 11.452 25.6 25.6v256c0 14.131-11.469 25.6-25.6 25.6zM41.975 307.601h426.666v-34.134h-426.666v34.134zM468.642 94.267c0-4.711-3.823-8.534-8.534-8.534h-409.6c-4.71 0-8.534 3.823-8.534 8.534v162.133h426.666v-162.133zM41.975 324.668v25.6c0 4.71 3.823 8.534 8.534 8.534h409.6c4.711 0 8.534-3.823 8.534-8.534v-25.6h-426.666zM76.109 136.935h170.667v-17.067h-170.667v17.067zM76.109 188.135h102.4v-17.067h-102.4v17.067zM383.062 119.868h34.654c9.276 0 16.802 7.399 16.802 16.546v1.024c0 9.139-7.526 16.555-16.802 16.555h-34.654c-9.293 0-16.819-7.416-16.819-16.555v-1.024c0-9.147 7.526-16.546 16.819-16.546z" />
<glyph unicode="&#xe623;" d="M231.143 355.738v-70.016l16.896-0.171c117.401-1.135 183.535-53.351 200.755-159.163-64.495 74.599-138.855 74.632-200.584 74.649h-17.075v-69.418l-158.2 112.069 158.208 112.051zM248.209 388.753l-204.8-145.066 204.8-145.067v85.351c81.963-0.034 157.96-4.164 222.225-118.767 0 72.781-12.024 235.383-222.225 237.415v86.135z" />
<glyph unicode="&#xe624;" d="M40.508 438.971v-426.666h426.675v426.666h-426.675zM450.116 421.905v-68.266h-392.542v68.266h392.542zM57.575 29.372v307.2h392.542v-307.2h-392.542zM151.441 396.305h264.542v-17.067h-264.542v17.067zM83.174 396.305h17.067v-17.067h-17.067v17.067zM117.308 396.305h17.066v-17.067h-17.067v17.067z" />
<glyph unicode="&#xe625;" d="M256.802 389.086c-103.697 0-187.733-84.053-187.733-187.733 0-47.053 17.357-90.035 45.969-122.983l-43.912-53.837 13.218-10.786 42.556 52.147c33.724-32.35 79.471-52.267 129.912-52.267 50.551 0 96.401 20.019 130.159 52.514l42.53-52.463 13.269 10.752-43.947 54.221c28.467 32.913 45.721 75.784 45.721 122.701-0.009 103.68-84.079 187.733-187.742 187.733zM256.802 30.703c-94.106 0-170.667 76.553-170.667 170.649 0 94.114 76.561 170.667 170.667 170.667s170.667-76.553 170.667-170.667c0-94.106-76.561-170.649-170.667-170.649zM179.626 440.303h-50.696c-47.13 0-85.334-38.203-85.334-85.334v-51.353h24.269l111.761 112.401v24.286zM162.56 423.048l-101.802-102.366h-0.102v34.287c0 37.632 30.626 68.266 68.267 68.266h33.63v-0.188zM384.921 440.303h-50.731v-24.286l111.786-112.401h24.286v51.353c-0.009 47.13-38.221 85.334-85.342 85.334zM453.188 320.683h-0.12l-101.811 102.366v0.188h33.664c37.64 0 68.267-30.635 68.267-68.266v-34.287zM248.388 201.37h-94.080v-17.067h111.147v153.6h-17.066z" />
<glyph unicode="&#xe626;" d="M256.921 437.18c-117.837 0-213.333-95.497-213.333-213.334 0-117.829 95.496-213.333 213.333-213.333s213.334 95.496 213.334 213.333c0 117.837-95.496 213.333-213.333 213.333zM256.921 27.579c-108.219 0-196.267 88.047-196.267 196.267s88.047 196.267 196.267 196.267 196.267-88.047 196.267-196.267c0-108.211-88.047-196.267-196.267-196.267zM265.455 351.846h-17.066v-119.466h-118.895v-17.067h118.895v-118.895h17.067v118.895h119.466v17.066h-119.466z" />
<glyph unicode="&#xe627;" d="M282.522 423.339v-41.591l12.8-3.311c14.481-3.738 28.296-9.558 41.063-17.306l11.452-6.946 29.764 29.764 36.199-36.199-30.225-30.216 6.511-11.332c7.219-12.57 12.621-26.172 16.034-40.44l3.14-13.082h43.921v-51.2h-44.902l-3.456-12.527c-3.738-13.509-9.336-26.471-16.649-38.519l-6.946-11.461 32.581-32.572-36.199-36.199-33.041 33.033-11.324-6.511c-11.75-6.759-24.507-11.921-37.905-15.385l-12.808-3.303v-47.232h-51.2v47.232l-12.809 3.303c-13.398 3.456-26.155 8.627-37.905 15.385l-11.333 6.511-33.032-33.041-36.198 36.207 32.581 32.572-6.946 11.461c-7.313 12.049-12.919 25.011-16.648 38.519l-3.456 12.527h-44.903v51.2h43.921l3.141 13.082c3.413 14.268 8.815 27.879 16.034 40.44l6.511 11.333-30.225 30.216 36.198 36.198 29.764-29.764 11.452 6.946c12.766 7.748 26.582 13.568 41.063 17.305l12.8 3.311v41.591h51.183zM256.921 150.255c42.351 0 76.8 34.457 76.8 76.817 0 42.351-34.449 76.808-76.8 76.808s-76.8-34.457-76.8-76.808c0-42.36 34.458-76.817 76.8-76.817zM299.589 440.406h-85.334v-45.44c-16.298-4.207-31.616-10.726-45.654-19.243l-32.367 32.367-60.331-60.339 33.049-33.049c-7.978-13.884-14.003-28.979-17.834-44.962h-47.531v-85.334h48.981c4.216-15.257 10.487-29.611 18.509-42.837l-35.175-35.175 60.331-60.347 35.865 35.874c13.065-7.51 27.204-13.261 42.146-17.11v-51.072h85.334v51.072c14.942 3.849 29.082 9.6 42.146 17.11l35.865-35.865 60.331 60.339-35.175 35.175c8.022 13.226 14.293 27.571 18.509 42.837h48.981v85.334h-47.531c-3.832 15.983-9.856 31.079-17.834 44.962l33.050 33.050-60.331 60.339-32.367-32.367c-14.038 8.517-29.346 15.036-45.654 19.243v45.44h0.017zM256.921 167.322c-32.999 0-59.733 26.752-59.733 59.75s26.735 59.742 59.733 59.742 59.733-26.743 59.733-59.742-26.726-59.75-59.733-59.75v0z" />
<glyph unicode="&#xe628;" d="M458.471 42.137l-116.25 116.258c23.365 28.101 37.435 64.188 37.435 103.577 0 89.549-72.584 162.134-162.133 162.134-89.531 0-162.133-72.585-162.133-162.134 0-89.531 72.602-162.134 162.133-162.134 39.398 0 75.486 14.063 103.586 37.435l116.25-116.267 21.111 21.128zM72.448 261.982c0 79.992 65.067 145.067 145.067 145.067 79.983 0 145.067-65.075 145.067-145.067 0-80-65.084-145.066-145.066-145.066-80 0-145.066 65.067-145.066 145.066z" />
<glyph unicode="&#xe629;" d="M372.010 432.418h-324.267v-409.6h409.6v324.267l-85.334 85.334zM337.877 415.351v-119.466h-170.667v119.466h170.667zM440.277 39.885h-375.466v375.466h85.334v-136.534h204.8v136.534h10.001l75.332-75.332v-300.135zM287.010 381.218h17.067v-51.2h-17.067v51.2zM167.21 159.351h170.667v-17.067h-170.667v17.067zM167.21 108.151h170.667v-17.067h-170.667v17.067z" />
<glyph unicode="&#xe62a;" d="M257.212 440.303c-117.837 0-213.333-95.496-213.333-213.333s95.496-213.333 213.333-213.333 213.333 95.497 213.333 213.333-95.505 213.333-213.333 213.333zM257.212 30.703c-108.219 0-196.267 88.047-196.267 196.267s88.047 196.267 196.267 196.267 196.267-88.047 196.267-196.267-88.055-196.267-196.267-196.267zM146.841 235.503h221.303v-17.067h-221.304v17.066z" />
<glyph unicode="&#xe62b;" d="M300.211 25.019h-102.494v166.425l-170.641 226.108h443.87l-170.735-226.108v-166.425zM214.784 42.087h68.361v155.067l153.531 203.332h-375.339l153.446-203.332v-155.067z" />
<glyph unicode="&#xe62c;" d="M427.589 359.236h-221.867v8.534c0 18.85-15.283 34.134-34.133 34.134h-85.334c-18.85 0-34.133-15.283-34.133-34.134v-281.6c0-18.85 15.283-34.134 34.133-34.134h341.334c18.85 0 34.133 15.283 34.133 34.134v238.933c0 18.85-15.283 34.134-34.134 34.134zM69.189 367.769c0 9.413 7.654 17.067 17.067 17.067h85.334c9.412 0 17.066-7.654 17.066-17.067v-25.6h238.934c9.413 0 17.067-7.654 17.067-17.066v-17.066h-375.466v59.733zM427.589 69.103h-341.334c-9.412 0-17.067 7.663-17.067 17.067v204.8h375.466v-204.8c0-9.404-7.654-17.067-17.067-17.067z" />
<glyph unicode="&#xe62d;" d="M410.513 409.413l-11.349-3.96c-0.298-0.102-31.044-10.632-79.65-10.632-24.764 0-48.35 5.026-71.151 9.882-23.057 4.915-46.907 10.001-72.158 10.001-50.346 0-67.422-10.811-69.206-12.040l-3.678-2.543v-360.883h17.067v163.2c6.793 2.654 23.441 7.365 55.817 7.365 23.45 0 45.38-4.668 68.6-9.617 23.663-5.051 48.145-10.265 74.71-10.265 51.746 0 83.959 11.119 85.308 11.579l5.7 2.014-0.009 205.901zM393.455 215.911c-11.042-3.012-37.462-8.926-73.942-8.926-24.764 0-48.35 5.017-71.151 9.89-23.057 4.915-46.907 10.001-72.158 10.001-27.639 0-45.261-3.259-55.816-6.408v169.814c6.835 2.654 23.526 7.356 55.816 7.356 23.45 0 45.38-4.677 68.6-9.626 23.663-5.043 48.145-10.257 74.71-10.257 34.373 0 60.126 4.906 73.942 8.346v-170.189z" />
<glyph unicode="&#xe62e;" d="M436.728 411.478c-5 4.992-11.554 7.493-18.108 7.493-6.562 0-13.107-2.501-18.099-7.493l-75.324-75.315v14.268h-273.067v-324.267h324.267v273.067h-15.702l76.032 76.041c10.010 9.984 10.010 26.206 0 36.207zM359.322 43.23h-290.134v290.134h253.209l-133.743-133.726v-36.933h35.516l135.151 135.159v-254.635zM424.661 387.337l-207.556-207.573h-11.383v12.8l206.874 206.857c2.168 2.167 4.702 2.483 6.024 2.483s3.865-0.324 6.041-2.5c2.185-2.176 2.509-4.719 2.509-6.041 0-1.314-0.325-3.84-2.509-6.024z" />
</font>
</defs>
</svg>
